<?xml version="1.0" standalone="no"?>
<!DOCTYPE svg PUBLIC "-//W3C//DTD SVG 20010904//EN"
 "http://www.w3.org/TR/2001/REC-SVG-20010904/DTD/svg10.dtd">
<svg version="1.0" xmlns="http://www.w3.org/2000/svg"
 width="512.000000pt" height="512.000000pt" viewBox="0 0 512.000000 512.000000"
 preserveAspectRatio="xMidYMid meet">

<g transform="translate(0.000000,512.000000) scale(0.100000,-0.100000)"
fill="#000000" stroke="none">
<path d="M1922 4847 l-272 -272 0 -223 0 -222 -575 0 -575 0 0 -310 c0 -170
-3 -310 -7 -310 -4 0 -48 41 -98 90 l-91 90 -57 -58 -57 -57 195 -195 195
-195 190 190 c104 104 190 195 190 200 0 6 -25 35 -55 65 l-55 54 -95 -94 -95
-95 0 228 0 227 495 0 495 0 0 -495 0 -495 415 0 415 0 0 -245 0 -244 -72 -3
-73 -3 -32 -90 c-17 -49 -33 -94 -35 -99 -2 -4 -46 13 -97 39 l-94 47 -159
-160 -160 -159 47 -92 c25 -51 43 -96 40 -100 -4 -3 -48 -20 -98 -37 l-92 -31
-3 -71 -3 -72 -494 0 -495 0 0 415 0 415 250 0 250 0 0 330 0 330 -580 0 -580
0 0 -330 0 -330 248 -2 247 -3 3 -663 2 -662 -54 -24 c-67 -30 -133 -94 -166
-161 -36 -74 -35 -198 2 -277 31 -66 91 -128 156 -160 39 -19 63 -23 142 -23
83 0 101 4 145 27 207 109 243 377 73 534 -24 22 -65 49 -91 60 l-47 19 0 173
0 172 248 -2 247 -3 3 -501 2 -501 -24 -11 c-39 -18 -96 -73 -117 -114 -104
-203 116 -432 322 -334 115 54 175 204 127 317 -21 49 -71 103 -113 123 l-35
17 0 504 0 505 165 0 165 0 0 -73 0 -73 100 -33 c55 -18 100 -34 100 -37 0 -2
-21 -46 -46 -96 l-46 -91 160 -159 159 -160 91 46 c50 25 94 46 96 46 3 0 19
-45 37 -100 l33 -100 226 0 226 0 33 100 c18 55 34 100 37 100 2 0 46 -21 96
-46 l91 -46 159 160 160 159 -46 91 c-25 50 -46 94 -46 96 0 3 45 19 100 37
l100 33 0 73 0 73 165 0 165 0 0 -505 0 -504 -35 -17 c-42 -20 -92 -74 -113
-123 -48 -113 12 -263 127 -317 206 -98 426 131 322 334 -21 41 -78 96 -117
114 l-24 11 2 501 3 501 248 3 247 2 0 -172 0 -173 -47 -19 c-26 -11 -67 -38
-91 -60 -170 -157 -134 -425 73 -534 44 -23 62 -27 145 -27 79 0 103 4 142 23
65 32 125 94 156 160 37 79 38 203 2 277 -33 67 -99 131 -166 161 l-54 24 2
662 3 663 248 3 247 2 0 330 0 330 -580 0 -580 0 0 -330 0 -330 250 0 250 0 0
-415 0 -415 -495 0 -494 0 -3 72 -3 71 -92 31 c-50 17 -94 34 -98 37 -3 4 15
49 40 100 l47 92 -160 159 -159 160 -94 -47 c-51 -26 -95 -43 -97 -39 -2 5
-18 50 -35 99 l-32 90 -72 3 -73 3 0 244 0 245 415 0 415 0 0 495 0 495 495 0
495 0 0 -227 0 -228 -95 95 -95 94 -55 -54 c-30 -30 -55 -59 -55 -65 0 -5 86
-96 190 -200 l190 -190 195 195 195 195 -57 57 -57 58 -91 -90 c-50 -49 -94
-90 -98 -90 -4 0 -7 140 -7 310 l0 310 -575 0 -575 0 0 495 0 495 -638 0 -637
0 -273 -273z m1378 -802 l0 -905 -740 0 -740 0 0 660 0 660 245 0 245 0 0 245
0 245 495 0 495 0 0 -905z m-1152 683 l-3 -103 -102 -3 c-57 -1 -103 1 -103 5
0 10 192 203 203 203 4 0 6 -46 5 -102z m-1158 -1923 l0 -165 -410 0 -410 0 0
165 0 165 410 0 410 0 0 -165z m3960 0 l0 -165 -410 0 -410 0 0 165 0 165 410
0 410 0 0 -165z m-2254 -587 l29 -91 53 -24 52 -23 92 46 91 46 74 -75 75 -74
-46 -91 -46 -91 24 -53 24 -54 91 -29 91 -29 0 -107 0 -107 -93 -31 -93 -31
-22 -51 -21 -51 45 -91 46 -90 -75 -74 -74 -75 -89 45 -89 44 -52 -19 -52 -20
-31 -94 -32 -94 -108 0 -108 0 -32 94 -31 94 -52 20 -52 19 -89 -44 -89 -45
-74 75 -75 74 46 90 45 91 -21 51 -22 51 -93 31 -93 31 0 107 0 107 91 29 91
29 24 54 24 53 -46 91 -46 91 75 74 74 75 91 -46 92 -46 52 23 53 24 29 91 30
92 106 0 106 0 30 -92z m-2028 -1255 c67 -50 90 -131 58 -207 -26 -62 -110
-105 -181 -92 -50 10 -112 68 -126 118 -29 110 60 215 174 205 27 -2 60 -13
75 -24z m3946 7 c106 -51 124 -184 37 -263 -109 -98 -271 -24 -271 123 0 121
123 194 234 140z m-3341 -652 c75 -40 53 -148 -31 -148 -75 0 -110 83 -57 135
26 27 54 31 88 13z m2662 -13 c53 -52 18 -135 -56 -135 -29 0 -42 6 -58 26
-63 80 43 181 114 109z"/>
<path d="M2480 4705 l0 -85 328 2 327 3 3 83 3 82 -331 0 -330 0 0 -85z"/>
<path d="M2480 4375 l0 -85 328 2 327 3 3 83 3 82 -331 0 -330 0 0 -85z"/>
<path d="M1980 4045 l0 -85 580 0 580 0 0 85 0 85 -580 0 -580 0 0 -85z"/>
<path d="M1980 3715 l0 -85 580 0 580 0 0 85 0 85 -580 0 -580 0 0 -85z"/>
<path d="M1980 3385 l0 -85 580 0 580 0 0 85 0 85 -580 0 -580 0 0 -85z"/>
<path d="M2433 1959 c-163 -52 -283 -216 -283 -388 0 -162 92 -305 239 -375
61 -29 74 -31 171 -31 97 0 110 2 171 31 285 135 323 514 69 705 -100 75 -243
98 -367 58z m232 -168 c89 -39 155 -160 140 -254 -34 -203 -275 -284 -419
-141 -92 92 -96 239 -9 335 77 85 180 106 288 60z"/>
</g>
</svg>
