<?xml version="1.0" standalone="no"?>
<!DOCTYPE svg PUBLIC "-//W3C//DTD SVG 20010904//EN"
 "http://www.w3.org/TR/2001/REC-SVG-20010904/DTD/svg10.dtd">
<svg version="1.0" xmlns="http://www.w3.org/2000/svg"
 width="225.000000pt" height="225.000000pt" viewBox="0 0 225.000000 225.000000"
 preserveAspectRatio="xMidYMid meet">

<g transform="translate(0.000000,225.000000) scale(0.100000,-0.100000)"
fill="#000000" stroke="none">
<path d="M330 1899 c-14 -6 -36 -20 -48 -32 -53 -49 -52 -40 -52 -575 l0 -499
23 -34 c12 -18 38 -44 56 -56 l34 -23 488 0 c430 0 489 2 503 16 22 21 20 50
-4 74 -19 19 -33 20 -489 20 -414 0 -471 2 -485 16 -14 14 -16 72 -16 488 0
445 1 474 18 489 17 16 85 17 769 17 866 0 783 11 783 -106 0 -82 17 -114 59
-114 44 0 51 16 51 121 0 105 -13 139 -73 183 -28 21 -34 21 -810 23 -506 1
-791 -2 -807 -8z"/>
<path d="M1565 1446 c-41 -18 -82 -68 -95 -117 -7 -26 -10 -198 -8 -512 l3
-472 24 -38 c12 -21 41 -47 62 -58 38 -19 56 -20 319 -17 316 3 314 3 358 88
22 44 22 46 22 524 0 467 -1 481 -21 523 -14 29 -35 52 -63 68 -43 25 -43 25
-307 25 -197 -1 -272 -4 -294 -14z m559 -118 c14 -20 16 -82 16 -484 0 -425
-1 -463 -17 -483 -18 -21 -23 -21 -273 -19 l-254 3 -13 25 c-10 19 -12 128
-11 488 3 446 4 464 22 478 16 11 69 14 267 14 245 0 248 0 263 -22z"/>
<path d="M1815 540 c-41 -46 29 -116 75 -75 24 22 26 58 4 79 -21 22 -57 20
-79 -4z"/>
<path d="M17 542 c-13 -14 -17 -38 -17 -98 0 -91 24 -153 73 -188 28 -21 41
-21 634 -24 555 -2 607 -1 624 14 25 22 24 49 -1 74 -20 20 -33 20 -604 20
l-585 0 -15 22 c-9 12 -16 37 -16 55 l0 33 600 0 c587 0 600 0 620 20 25 25
26 52 2 73 -17 15 -77 17 -659 17 -607 0 -641 -1 -656 -18z"/>
</g>
</svg>
